/* XPM */
static char *result[] = {
/* columns rows colors chars-per-pixel */
"32 32 10 1 ",
"  c #40264D",
". c #222034",
"X c #644574",
"o c #626F8A",
"O c #9DB3BF",
"+ c #563767",
"@ c #CBDBFC",
"# c #696A6A",
"$ c #5FCDE4",
"% c #847E87",
/* pixels */
"                                ",
"      ............XXXXXXXXXXX   ",
"     .ooOOOOOOOOOO.++++++++++X  ",
"    .ooOOOOOOOOOOOO.++++++++++X ",
"    .oOOOOOOOOOOOOO.+++X++++++X ",
"    .oOOOo++OOOo++O.++X X+++++X ",
"    .oO.Oo+++Oo+++O.+X   X++++X ",
" XX .oo.OOo++Oo++OO.++X .+++++X ",
" XXX.oo.OOOOOOOOOOO.+++.@.++++X ",
" X++.oo.OOOOOOOOOOO.+++.@.++++X ",
" X+++..#.OOOO+O+OO.++++.@$.+++X ",
" X++++X..OOOO+O+OO.++++.@$.+++X ",
" X++++++.oOOOOOOOo.++++.$$.+++X ",
" X++++++.OoOOOOOoO.+++++.$$.++X ",
" X++++++X.........++++++.@$.++X ",
" X+++++++XX.%%%.+++++++X.@$.++X ",
" X+++..+...........+..++.@.+++X ",
" X++.Oo.oOOOOOoOOOO.OO..$$.+++X ",
" X++.Oo.oooo.O.oooo.oO.+..++++X ",
" X++.OOo....OOO....X.oO.OO.+++X ",
" X+++.O.oOOOOOoOOOO.X.oooo.+++X ",
" X+++.o.oooooO.oooo.XX....++++X ",
" X++.OO#....OOO....  XX+++++++X ",
" X++.Oo.oOOOOOo%%%%.  XX++++++X ",
" X++.oo.oooo.O.oooo.X  XX+++++X ",
" X+++..+....+.+....+XX  XX+++X  ",
" X+++++.oO.++++.oO.++XX  XX+XX  ",
" X+++++.oO.++++.oO.+++XX  X+X   ",
" XX+++++.oO.++++.oO.++XX   X    ",
"  XX++++.oO.++++.oO.++X         ",
"   XXXX.oO.XXXX.oO.XXX          ",
"                                "
};
