/* XPM */
static char *result[] = {
/* columns rows colors chars-per-pixel */
"32 32 63 1 ",
"  c #2B1836",
". c #2C1936",
"X c #2C1937",
"o c #2E1937",
"O c #2E1938",
"+ c #311B3B",
"@ c #311C3D",
"# c #321C3E",
"$ c #2E2235",
"% c #2F2437",
"& c #302438",
"* c #322638",
"= c #322639",
"- c #332739",
"; c #33273A",
": c #362A3E",
"> c #361F41",
", c #361F42",
"< c #362042",
"1 c #382B40",
"2 c #3C2E45",
"3 c #3B2248",
"4 c #3D244A",
"5 c #3D244B",
"6 c #40264D",
"7 c #413546",
"8 c #433749",
"9 c #43334C",
"0 c #45354E",
"q c #44384A",
"w c #45394B",
"e c #463B4C",
"r c #473C4D",
"t c #473751",
"y c #4C3F53",
"u c #4D4054",
"i c #4E4154",
"p c #4E4155",
"a c #54465B",
"s c #55465B",
"d c #55475C",
"f c #5A4C63",
"g c #5B4D63",
"h c #5C4C63",
"j c #5F4F66",
"k c #5F4F67",
"l c #5B4B6E",
"z c #5E4E71",
"x c #62526A",
"c c #604F72",
"v c #635275",
"b c #645376",
"n c #6A577A",
"m c #6B597B",
"M c #6C5A7C",
"N c #6D5A7D",
"B c #6D5B7D",
"V c #746082",
"C c #766284",
"Z c #7D688A",
"A c #7E698B",
"S c #836C90",
"D c #877193",
/* pixels */
"6D666666666666666666666666666tD6",
"6DD6DDDDDD6DDDDDD6xxxxxxx6DDDDD6",
"6Dx6xxxxxx6xxxxxx6xxxxxxx6xxxDD6",
"6Dt6xxxxxx6tttttt6xxxxxxx6ttttD6",
"66666666666666666666666666666t66",
"6DDDDDD6xxxxxx6DDDDDD6xxxxxx6DD6",
"6Dxxxxx6xxxxxx6xxxxxx6xxxxxx6xD6",
"6Dttttt6xxxxxx6xxxxxx6tttttt6tD6",
"66666666666666666666666666666t66",
"6DD6DDDDDD6DDDDDD6xxxxxxx6DDDDD6",
"6Dx6xxxxxx6xxxxxx6xxxxxxx6xxxDD6",
"6Dt6xxxxxx6tttttt6xxxxxxx6ttttD6",
"66666666666666666666666666666t66",
"6DDDDDD6xxxxxx6DDDDDD6xxxxxx6DD6",
"5Skkkkk5kkkkkk5kkkkkk5kkkkjj4jS5",
"5S000005kkkkkk5kkkkkk5kkkkjj40S5",
"55555555555555555555555555444055",
"3AA3AAAAAA3gggggg3AAAAAAA3hAZZA3",
"3Ag3gggggg3gggggg3ggggggg3hhfZA3",
"3Ag39999993gggggg399999993hhffA3",
"<<<<<<<<<<<<<<<<<<<<<<<<<<,,>2<<",
"<CCssss<CCCCCC<CCCCCC<sdssaa>VC<",
"<CCssss<ssssss<ssssss<sdssaa>VC<",
"@N11111@pppppp@111111@pppiuu+yB#",
"@@@@@@@@@@@@@@@@@@@@@@@@@@@@+:##",
"@NN@NNNNNN@pppppp@NNNNNNN@MMmnB#",
"XvrXrrrrrrXrrrrrrXrrrrrrrXeewcbO",
"X;;X;;;;;;XrrrrrrX;;;;;;;X-=*qbO",
"XXXXXXXXXXXXXXXXXXXXXXoooX.. &OO",
"lllllll$llllll$llllll$llllllllzz",
"l777777$777777$777777$777777778z",
"l$$$$$$$$$$$$$$$$$$$$$$$$$$$$$%z"
};
