/* XPM */
static char *_90690c9d51c40e3b996791825e6b5f9[] = {
/* columns rows colors chars-per-pixel */
"32 32 179 2 ",
"   c #000000",
".  c #0A0705",
"X  c #0A0907",
"o  c #0B060C",
"O  c #0C0B08",
"+  c #120B07",
"@  c #130E09",
"#  c #121007",
"$  c #13100B",
"%  c #1C160B",
"&  c #1D190C",
"*  c #0D0710",
"=  c #130D12",
"-  c #161314",
";  c #22170B",
":  c #241C0C",
">  c #221A14",
",  c #301F1E",
"<  c #29220E",
"1  c #2F2510",
"2  c #2E2A11",
"3  c #2F2319",
"4  c #332B11",
"5  c #392D13",
"6  c #31261A",
"7  c #232323",
"8  c #292729",
"9  c #2C2B2C",
"0  c #2B2A33",
"q  c #333234",
"w  c #3B3B3B",
"e  c #473717",
"r  c #473816",
"t  c #513E17",
"y  c #452225",
"u  c #4E3F21",
"i  c #6A2525",
"p  c #4D4015",
"a  c #554818",
"s  c #564819",
"d  c #64541C",
"f  c #5B4A24",
"g  c #6D5A22",
"h  c #7B6524",
"j  c #3E3D43",
"k  c #464748",
"l  c #494C4C",
"z  c #514948",
"x  c #5F544F",
"c  c #474651",
"v  c #535253",
"b  c #635E65",
"n  c #656363",
"m  c #6E6D6D",
"M  c #6F7374",
"N  c #737271",
"B  c #757B7A",
"V  c #797A7C",
"C  c #8E2B25",
"Z  c #9C2C2E",
"A  c #826E26",
"S  c #8A7526",
"D  c #927D24",
"F  c #927E2D",
"G  c #948326",
"H  c #9B852E",
"J  c #978330",
"K  c #9B8031",
"L  c #AA862C",
"P  c #A28C2B",
"I  c #A88E2F",
"U  c #A79227",
"Y  c #A6912A",
"T  c #AC942B",
"R  c #AE9829",
"E  c #B0932F",
"W  c #B49D2B",
"Q  c #A28733",
"!  c #A38B32",
"~  c #AA8D33",
"^  c #B08F33",
"/  c #AD9036",
"(  c #B59B31",
")  c #BB9935",
"_  c #BA9B34",
"`  c #B9A22F",
"'  c #BCA236",
"]  c #C69F34",
"[  c #C0A82C",
"{  c #C2A632",
"}  c #CDA535",
"|  c #C4AB31",
" . c #CEAE34",
".. c #C1A738",
"X. c #CBA73C",
"o. c #CDAD3C",
"O. c #D4AD35",
"+. c #DAAD34",
"@. c #D3AE3A",
"#. c #D9AB3A",
"$. c #CEB234",
"%. c #CFB13A",
"&. c #D4B235",
"*. c #D9B135",
"=. c #D3B13B",
"-. c #D8B03C",
";. c #D3AD42",
":. c #CFB141",
">. c #CEB44C",
",. c #D2B342",
"<. c #D2B44A",
"1. c #CFB654",
"2. c #CFB75E",
"3. c #CFB959",
"4. c #D3B556",
"5. c #CFB964",
"6. c #D5B664",
"7. c #D1BA61",
"8. c #D1BC6A",
"9. c #CCBE76",
"0. c #D2BE74",
"q. c #D4BD7A",
"w. c #7F8281",
"e. c #858585",
"r. c #8D8985",
"t. c #838488",
"y. c #8E8B90",
"u. c #939295",
"i. c #9B9799",
"p. c #9B9D9B",
"a. c #A7A8A9",
"s. c #B0AFAF",
"d. c #AEAEB1",
"f. c #B1AEB0",
"g. c #AAB3B3",
"h. c #B3B2B3",
"j. c #B5B5B7",
"k. c #BBBAB6",
"l. c #BCBEBC",
"z. c #D4BE83",
"x. c #BEC2BD",
"c. c #CFC087",
"v. c #D3C281",
"b. c #CFC292",
"n. c #D4C7A4",
"m. c #D5C7AA",
"M. c #D4C9AB",
"N. c #CEC7B1",
"B. c #CDCDB4",
"V. c #C4C2BC",
"C. c #CECDBC",
"Z. c #D7C7B7",
"A. c #D5CCB6",
"S. c #D9C1B8",
"D. c #D1CCBB",
"F. c #BBBDC2",
"G. c #C0BEC0",
"H. c #C4C2C4",
"J. c #C6CCC5",
"K. c #CCCCC4",
"L. c #C5C9CB",
"P. c #CCCDCC",
"I. c #D3CCC1",
"U. c #D8C6CB",
"Y. c #D2CECC",
"T. c #CED2C5",
"R. c #CED1CC",
"E. c #D1D1C6",
"W. c #D1D1CE",
"Q. c #C7CED0",
"!. c #CDCCD2",
"~. c #D4CED4",
"^. c #D8CDD3",
"/. c #D6CFD9",
"(. c #CDD1D2",
"). c #CFD3D8",
"_. c #D2D0D5",
"`. c #D2D2D4",
"'. c #D1D6D9",
/* pixels */
"                                                                ",
"                                                                ",
"                        . = # @ # $ =                           ",
"                    $ @ 5 ! Y ~ I T g @ $ X                     ",
"                @ < J / ) O.*.+.*.*.] ^ ~ s @ X                 ",
"              : D W -.@.*.@.:.,.,.@.*.O.-.{ U p .               ",
"            > J %.&.@.;.:.7.N.D.C.c.,.;.@.&.&.' u .             ",
"          % F O.#.&.>.M.B.C._.~._.T.B.A.0.%.@.O.( r .           ",
"        X S  .#.O.1.m.W.R.(.R._.W.P.(.W.I.0.@.#.=.W 4           ",
"        % T &. .1.S.~.R._._.(.K.P._._.R.W.U.q.=. .$.p .         ",
"      O A @.@.<.m.~.'.(.l.H._.E.W.!.l.L.'.~.I.8.=.-.T 2         ",
"      O Q @.;.n.W.P.(.a.w v !._._.y.9 V L.R.W.D.6.@.o.5         ",
"      % L *.<.D.R._.h.v e.j L.(._.V v N V _.W.R.0.O.} r         ",
"    o A } =.>.B.!.Y.f.9 q c J.R.W.t.0 8 N _.!.R.9.=.@.E 3       ",
"    X G *.,.n.(._.!.!.j.d.h.l.l.l.j.d.d.H.~._._.C.2.O.| 4       ",
"    . K *.=.D.~.Y.R.W._._.a.q 7 7 N W._.W.W.W.Y._.8.O.X.4       ",
"    . K *.=.D.~./.P.R.!._.J.w.- l k._.(.P.R.~.~._.8.O.X.4       ",
"    X G *.,.M.(.R._./.P.l.V.H.p.s.K.k.H././.W.R.Y.5.O.| 2       ",
"    * S @.=.1.B.R.R.!.a.w b i.7 n u.q N L.R.R.R.9.=.@.( 6       ",
"      : L *.<.D.W._.g.l a.F.u.  l H.j.m B ).W.W.0.&.} t .       ",
"      O Q @.;.M.~.^.d.k h.F.r.+ z l.F.m M ~./.Y.6.O.o.5         ",
"      O S @.@.1.Z._.K.p.w 9 y C i 8 q N H.W.Y.q.=.@.( 2         ",
"        : R &. .2.D.R.J.k.e.y Z i v h.x.T.Y.z.%. .$.s .         ",
"        X D %.#.O.4.A._._.Q.r., x x._.~.E.z.@.O.=.` 5           ",
"          : H O.#.O.3.A.I.T.L.h.G.R.C.I.v.%.O.O.' s .           ",
"            3 ! =.&.@.<.>.8.C.E.I.b.>.<.;.%.&...f O             ",
"              1 P [ -.O.*.=.>.<.<.:.*.O.@. .W s .               ",
"              . % 5 I ) ] O.*.+.*.O.} ) ) d & O                 ",
"                    & & e ( W ) ( ` h ; & O                     ",
"                        . > & ; & > -                           ",
"                                                                ",
"                                                                "
};
