/* XPM */
static char *_7871cff6cf04de5a4feb9b9ca42bf0c[] = {
/* columns rows colors chars-per-pixel */
"32 32 107 2 ",
"   c black",
".  c #010101",
"X  c #010102",
"o  c #000001",
"O  c #020102",
"+  c #04020B",
"@  c #02000B",
"#  c #090306",
"$  c #0F0402",
"%  c #0F0502",
"&  c #070207",
"*  c #010008",
"=  c #020004",
"-  c #010006",
";  c #51451F",
":  c #968231",
">  c #948030",
",  c #948131",
"<  c #958231",
"1  c #3D341A",
"2  c #000004",
"3  c #020003",
"4  c #010000",
"5  c #050301",
"6  c #040100",
"7  c #72641D",
"8  c #D4BA2C",
"9  c #D1B72B",
"0  c #D1B82C",
"q  c #D2B92D",
"w  c #574B17",
"e  c #030000",
"r  c #050200",
"t  c #030201",
"y  c #010001",
"u  c #715E1F",
"i  c #D5B031",
"p  c #D2AD30",
"a  c #D2AD2F",
"s  c #D2AE31",
"d  c #564618",
"f  c #030100",
"g  c #000002",
"h  c #735B29",
"j  c #DAAD46",
"k  c #D7AA45",
"l  c #D5A944",
"z  c #D6AA44",
"x  c #554420",
"c  c #000101",
"v  c #010201",
"b  c #745E26",
"n  c #DCB13D",
"m  c #D9AE3B",
"M  c #D8AE3C",
"N  c #D9AE3E",
"B  c #56461D",
"V  c #000201",
"C  c #725F20",
"Z  c #D8B233",
"A  c #D5AF31",
"S  c #D6B033",
"D  c #554718",
"F  c #010100",
"G  c #705E21",
"H  c #D5B237",
"J  c #D2AF35",
"K  c #D3B037",
"L  c #54461A",
"P  c #715E21",
"I  c #D5B236",
"U  c #D4AF37",
"Y  c #725F1F",
"T  c #D8B332",
"R  c #D5B032",
"E  c #010202",
"W  c #DCB03E",
"Q  c #D9AE3D",
"!  c #D8AE3D",
"~  c #56461E",
"^  c #000102",
"/  c #55441F",
"(  c #725E1E",
")  c #D5B02F",
"_  c #D2AD2E",
"`  c #D3AE31",
"'  c #554618",
"]  c #020100",
"[  c #040301",
"{  c #040200",
"}  c #D4BA2B",
"|  c #D2B82C",
" . c #D2B92F",
".. c #020000",
"X. c #020104",
"o. c #010005",
"O. c #514520",
"+. c #948031",
"@. c #958131",
"#. c #958232",
"$. c #3C3419",
"%. c #020009",
"&. c #090307",
"*. c #0F0503",
"=. c #060208",
"-. c #01000A",
";. c white",
/* pixels */
"                      . X               o                       ",
"                      O + @ # $ $ % % & @ *                     ",
"                        = - ; : > , < 1 2 3                     ",
"                      4 5 6 7 8 9 0 q w e r                     ",
"                        t y u i p a s d   f                     ",
"                        X g h j k l z x o c                     ",
"                        v g b n m M N B   V                     ",
"                        . o C Z A A S D   F                     ",
"                        o   G H J J K L                         ",
"                        y   P I J J U L                         ",
"                        y   P I J J U L                         ",
"                        y   P I J J U L                         ",
"                        y   P I J J U L                         ",
"                        y   P I J J U L                         ",
"                        y   P I J J U L                         ",
"                        y   P I J J U L                         ",
"                        y   P I J J U L                         ",
"                        y   P I J J U L                         ",
"                        y   P I J J U L                         ",
"                        y   P I J J U L                         ",
"                        y   P I J J U L                         ",
"                        y   P I J J U L                         ",
"                        y   P I J J U L                         ",
"                        y   P I J J U L                         ",
"                        v   Y T i R S D   c                     ",
"                        E g b W Q ! N ~ o V                     ",
"                        ^ g h j z l k / o o                     ",
"                        t y ( ) _ _ ` '   ]                     ",
"                        [ { 7 } 9 |  .w ..{                     ",
"                      o X.o.O.: +.@.#.$.2 X.                    ",
"                      o %.@ &.% % *.*.=.-.*                     ",
"                          o                                     "
};
