/* XPM */
static char *_43984333aba48d39fbbbc2859210f03[] = {
/* columns rows colors chars-per-pixel */
"32 32 218 2 ",
"   c #000000",
".  c #080603",
"X  c #0C0904",
"o  c #07090A",
"O  c #0C0B0A",
"+  c #140C08",
"@  c #161107",
"#  c #15120C",
"$  c #1E120A",
"%  c #151412",
"&  c #191A18",
"*  c #2F100C",
"=  c #28160C",
"-  c #201F15",
";  c #2F230F",
":  c #29241A",
">  c #33261A",
",  c #37331F",
"<  c #171F24",
"1  c #1A252B",
"2  c #172A34",
"3  c #1F343E",
"4  c #252624",
"5  c #352C25",
"6  c #383328",
"7  c #252E32",
"8  c #3A3C39",
"9  c #771F18",
"0  c #482C18",
"q  c #5D2817",
"w  c #523618",
"e  c #66291A",
"r  c #76291B",
"t  c #653218",
"y  c #44382C",
"u  c #5A3C28",
"i  c #453B30",
"p  c #7E3327",
"a  c #743F37",
"s  c #5C461B",
"d  c #634916",
"f  c #4A4427",
"g  c #5A462D",
"h  c #444137",
"j  c #45433B",
"k  c #564636",
"l  c #6D4429",
"z  c #714525",
"x  c #634835",
"c  c #645736",
"v  c #7C5436",
"b  c #6F7536",
"n  c #283943",
"m  c #303E45",
"M  c #374147",
"N  c #334A56",
"B  c #3B4B54",
"V  c #3E5663",
"C  c #4A4B46",
"Z  c #5A5143",
"A  c #52595A",
"S  c #66594A",
"D  c #707144",
"F  c #696358",
"G  c #7D6752",
"H  c #455D6B",
"J  c #56656A",
"K  c #556B77",
"L  c #556C78",
"P  c #696760",
"I  c #777467",
"U  c #677578",
"Y  c #787B76",
"T  c #871C1A",
"R  c #952D1E",
"E  c #91371D",
"W  c #952922",
"Q  c #893327",
"!  c #963822",
"~  c #B62623",
"^  c #AF3423",
"/  c #B33925",
"(  c #A93C35",
")  c #C52425",
"_  c #CB2525",
"`  c #CA2C26",
"'  c #D22623",
"]  c #D42B25",
"[  c #DA2E25",
"{  c #CB3726",
"}  c #DA3726",
"|  c #8D491E",
" . c #8A4A27",
".. c #93472A",
"X. c #87512D",
"o. c #955729",
"O. c #8A5937",
"+. c #A64625",
"@. c #AB592D",
"#. c #BD5E29",
"$. c #B14D3F",
"%. c #B75031",
"&. c #9E663A",
"*. c #A96738",
"=. c #B26334",
"-. c #AB713E",
";. c #C74A29",
":. c #D34527",
">. c #C85824",
",. c #D8582B",
"<. c #CB4736",
"1. c #D64C3A",
"2. c #CF6F24",
"3. c #D66728",
"4. c #C4772D",
"5. c #D97B27",
"6. c #C57137",
"7. c #D4733A",
"8. c #E07D3B",
"9. c #945545",
"0. c #AB5E49",
"q. c #8A6648",
"w. c #846B51",
"e. c #977E5F",
"r. c #BB7A4A",
"t. c #937C66",
"y. c #807E71",
"u. c #D95447",
"i. c #CF7D42",
"p. c #D86758",
"a. c #E76251",
"s. c #CE7A6B",
"d. c #D17B68",
"f. c #5E813D",
"g. c #609035",
"h. c #79A73C",
"j. c #8D8833",
"k. c #BF8A20",
"l. c #88AB35",
"z. c #D59029",
"x. c #DC813E",
"c. c #E08827",
"v. c #E29026",
"b. c #E59B24",
"n. c #E1813F",
"m. c #D5AE38",
"M. c #D0B73C",
"N. c #DCB53B",
"B. c #E9A723",
"V. c #ECBB2C",
"C. c #F6CA2B",
"Z. c #EDC539",
"A. c #F4CC34",
"S. c #988A44",
"D. c #B78446",
"F. c #AA9257",
"G. c #B7A244",
"H. c #BBA044",
"J. c #B6A85D",
"K. c #BFB15C",
"L. c #8F876B",
"P. c #92906D",
"I. c #9C9968",
"U. c #88857A",
"Y. c #978C79",
"T. c #A78B69",
"R. c #BC8967",
"E. c #AF966C",
"W. c #AB987C",
"Q. c #B29A79",
"!. c #98B265",
"~. c #CF8246",
"^. c #DC8343",
"/. c #D98B4A",
"(. c #DA915B",
"). c #E38A46",
"_. c #E88C46",
"`. c #E6914D",
"'. c #EA934D",
"]. c #E99A54",
"[. c #C6AC42",
"{. c #D5B340",
"}. c #D08A70",
"|. c #E89C7D",
" X c #5D7683",
".X c #597685",
"XX c #5F7F91",
"oX c #617A87",
"OX c #6F8D9F",
"+X c #728893",
"@X c #7F9FB0",
"#X c #92948C",
"$X c #AB9985",
"%X c #B79D80",
"&X c #ABA987",
"*X c #BBA586",
"=X c #ADB287",
"-X c #B2A995",
";X c #839EAD",
":X c #8AA7B5",
">X c #BAB7A8",
",X c #CC9882",
"<X c #C2AA8B",
"1X c #C2AE90",
"2X c #D7A993",
"3X c #D4BB99",
"4X c #E8BB99",
"5X c #CBB9A2",
"6X c #BBC690",
"7X c #D4CC9C",
"8X c #DFCCAA",
"9X c #D8CCB6",
"0X c #E0CBA7",
"qX c #E6D5B4",
"wX c #98B9CC",
"eX c #BDC6C4",
"rX c #E9DBC0",
"tX c #EEE2C9",
/* pixels */
"                O 4 6 h j j 6 o                                 ",
"          o 8 I I.E.F.J.F.I.=XU.%                               ",
"        o I 6X7XJ.H.G.M.H.m.S.I F O                             ",
"        5 &X!.K.D.4.#.;./ ^ W Q 9.a +                           ",
"        i e.L.0./ T 9 ! +.e q r ! Q 5                           ",
"        5 q.( %...X.*./.`.~.X.l R.*.x o                         ",
"        O x  .(.O.x r.].'.`.6.@.i.^.v O               .         ",
"          5 v i.^.7.8.n.7.7.^._._.~.c o           X z  .q * .   ",
"            k O.6._._.`.).^.`./.-.q.#XY C : o   $  .x.x.7. .@   ",
"            O x u z X.O.=.7.=.e u U.eXrXtX9X-XG =.).`./.o.$     ",
"              # S g > * T ) ~ p t.;X>X0X8X8X3XT.r.r.&.0 .       ",
"              6 -X<XG g p ` $.q.U @XY.E.Q.Q.T.w.w.k %           ",
"        . # I 9XqX3XU.F %X,X1XF A XXJ y C 6 6 > & o             ",
"    = v D.R.1X$XL.Z 8 J $XqX#X.XF L H N n                       ",
"  $ z -.].*.> o     < A F e.P  XU L H N <                       ",
"  . . @ 0 +     % B L H C 6 6 8 J +XU 4 .                       ",
"              7  XXXB &         L wXoX                          ",
"              7 H .XB 1 o     O OXwXM                           ",
"            . X @ j Y B 3 2 n B :X;X%                           ",
"      @ d | E R R $.}.D C B V L OX+XO                           ",
"      s 5.] _ ) ) s.1XP.*X*XY.U XXK o                           ",
"      = #.:.[ ] ] u.d.d.}.|.R.I +XB                             ",
"        t ;.} [ [ ] ' ' u.p.u.a.4XY.o                           ",
"        + ! { ] _ _ ) ) ~ ..r W R.L.3 1 o                       ",
"          * / { ] ' _ @.j.l.l.b c Z N .Xm                       ",
"          . r ;.} } p.I.h.h.g.f.I.W.y.$Xa .                     ",
"            = +.:.1.5X9X5X&XP.I.8X3X}.1.] T $                   ",
"              q >.,.d.,X2X2X2X}.p.<.) ) _ ` ^ t @               ",
"              X o.3.,.:.<.;.;.;.>.>.2.5.c.v.b.B.k.d @           ",
"                ; 4.c.v.b.b.B.B.V.V.C.C.A.A.Z.N.{.H.g           ",
"                  w z.N.N.N.N.M.[.G.S.S.b c f , - O             ",
"                    : , 6 , : - % o .                           "
};
