/* XPM */
static char *f9da27cd9bb840049874a333dc7f1178[] = {
/* columns rows colors chars-per-pixel */
"32 32 193 2 ",
"   c #000000",
".  c #0E0606",
"X  c #0C0905",
"o  c #0E0B0A",
"O  c #110D06",
"+  c #150F08",
"@  c #151307",
"#  c #1E160D",
"$  c #1C1A0D",
"%  c #1A1A18",
"&  c #23160B",
"*  c #251D0C",
"=  c #241B1D",
"-  c #26200C",
";  c #2A210E",
":  c #33280F",
">  c #2B2310",
",  c #24221E",
"<  c #322911",
"1  c #3A2D12",
"2  c #3A3312",
"3  c #1E1D22",
"4  c #262927",
"5  c #272828",
"6  c #2C302D",
"7  c #383638",
"8  c #440E13",
"9  c #413D0E",
"0  c #473916",
"q  c #562F32",
"w  c #433D3E",
"e  c #6A252C",
"r  c #4D421B",
"t  c #52421D",
"y  c #574A19",
"u  c #5D4D1B",
"i  c #624B1E",
"p  c #684D1F",
"a  c #65541C",
"s  c #6B581B",
"d  c #6A6419",
"f  c #74611D",
"g  c #544521",
"h  c #5B4B20",
"j  c #6E5721",
"k  c #675822",
"l  c #6C5922",
"z  c #735D25",
"x  c #755F28",
"c  c #766324",
"v  c #7D6223",
"b  c #7D6B20",
"n  c #7D7221",
"m  c #383740",
"M  c #494748",
"N  c #534E51",
"B  c #585757",
"V  c #65524F",
"C  c #595961",
"Z  c #5F6066",
"A  c #6A6768",
"S  c #6B6D6C",
"D  c #726C6D",
"F  c #6E6E72",
"G  c #787877",
"H  c #922531",
"J  c #8D681F",
"K  c #826527",
"L  c #8A6626",
"P  c #836C23",
"I  c #836528",
"U  c #846A2A",
"Y  c #847124",
"T  c #8F7E21",
"R  c #92752C",
"E  c #957B2A",
"W  c #7C847F",
"Q  c #998624",
"!  c #9A8A3B",
"~  c #A38727",
"^  c #A4852A",
"/  c #A48E2C",
"(  c #AC8E2C",
")  c #A79225",
"_  c #A5912C",
"`  c #AB912E",
"'  c #B1932D",
"]  c #B89E2B",
"[  c #A58432",
"{  c #AB8933",
"}  c #AB8D33",
"|  c #B08F33",
" . c #AE9434",
".. c #BA9433",
"X. c #B59A33",
"o. c #BB9D34",
"O. c #B8A128",
"+. c #BFA231",
"@. c #C29C2F",
"#. c #C29536",
"$. c #C2AB2C",
"%. c #D5AF2E",
"&. c #C9B12E",
"*. c #D5B32D",
"=. c #C4A334",
"-. c #C9A531",
";. c #C3AB35",
":. c #CBA935",
">. c #C3A839",
",. c #CEAB3A",
"<. c #D4AE35",
"1. c #DAAE36",
"2. c #D2A438",
"3. c #D4AE3C",
"4. c #DBAE3B",
"5. c #CDB234",
"6. c #CAB73D",
"7. c #D4B333",
"8. c #DAB335",
"9. c #D5B23B",
"0. c #DAB339",
"q. c #D5BA38",
"w. c #E0B130",
"e. c #BCAA40",
"r. c #CEB342",
"t. c #CFB14D",
"y. c #D2B243",
"u. c #D2B74E",
"i. c #CDB857",
"p. c #D2B653",
"a. c #D5B45B",
"s. c #D6B95A",
"d. c #CDBB64",
"f. c #CFBB6E",
"g. c #D4BA64",
"h. c #D4BA6D",
"j. c #CEBC72",
"k. c #CEBD7C",
"l. c #D5B776",
"z. c #D4BB72",
"x. c #D7BC75",
"c. c #837F81",
"v. c #848582",
"b. c #89898E",
"n. c #8A8891",
"m. c #9A999B",
"M. c #9E9AA0",
"N. c #A89FA5",
"B. c #A6A5A5",
"V. c #A6A9AE",
"C. c #AAABAA",
"Z. c #B4AFA5",
"A. c #B8B4AB",
"S. c #ABACB1",
"D. c #B3ACB2",
"F. c #ADB0B2",
"G. c #B5B5B4",
"H. c #B8B6B9",
"J. c #BCBEBC",
"K. c #D8BA87",
"L. c #D5BD93",
"P. c #C3BABA",
"I. c #BFC1B8",
"U. c #CDC48D",
"Y. c #D2C38F",
"T. c #D3C193",
"R. c #D6C19C",
"E. c #CEC8A9",
"W. c #D3C7A6",
"Q. c #CAC6BC",
"!. c #D3C6B1",
"~. c #D2C5BB",
"^. c #D7CBB9",
"/. c #BBBCC2",
"(. c #C5BDC4",
"). c #C3C7C6",
"_. c #CACCC5",
"`. c #C2C6CD",
"'. c #CCCDCC",
"]. c #D3CBC3",
"[. c #DAC6C9",
"{. c #D3CDCC",
"}. c #CDD2CD",
"|. c #D2D1C7",
" X c #D2D3CC",
".X c #CECED3",
"XX c #D4CFD3",
"oX c #D9CDD9",
"OX c #CDD2D1",
"+X c #CFD2DA",
"@X c #D2D2D3",
"#X c #D1D1D8",
"$X c #DAD9DA",
/* pixels */
"                                                                ",
"                                                                ",
"                      0 s s k l ;   @ a k ;                     ",
"                O y u ^ 8.7.7.7.R i a b >.E 1                   ",
"              # j &.7.<.t.j.h.3.<.9.o.i c X./ 0                 ",
"            ; K <.&.g.l.T.|.{.K.j.i.7.2.a z ( O.t O             ",
"            K 4.9.d.~.oXXX|.{.@X#XE.i.1.<.t r 7.e.>             ",
"          ; E 7.u.].'.@X@X_.OX#XXX{.E.3.9.x h / $.y @           ",
"        X [ 5.6.z.].OX@X@X{.{.XXOXOX^.i.5.<.K : -.:.r           ",
"        X { 7.g.oX@XG.C.H.OXOXXXH.C.G.[.u.<.K ; =.3.g           ",
"        X ~ %.h.'.C.N = B }.}.P.A 5 7 Q.p.7.P > >.<.a O         ",
"        * ` 0.x.S.6 B.N M OX).w c.G 4 J.s.7.Y 1  .7.$.d         ",
"      $ ) ,.3.k.F., 6 3 C +X`.m 5 4 7 J.d.y.:.Q 1 } q.Y         ",
"      - =.9.K.[._.Z.C.S./. X}.H.V.B.A.'.[.x.8.( & } 0.P         ",
"      * =.3.T.XX@X X X'.'._._.@X X|.@X@XXXz.<.} # _ 0.I         ",
"      * +.7.U.}.}.@X@XG 7 7 M D.@X@XOX}.}.z.7.` $ / 8.L         ",
"      * =.<.T.}.}.OX#XD.B % n.(.XX#XOX}.OXf.*._ $ / w.J         ",
"      - =.3.Y.}..X X}.@XH.m.'.@X@X X.X'. Xz.<.} $ / 4.L         ",
"      - >.<.Y..X.X{.S M.N.D I.F m. X{.XXoXl.<.| & / 0.P         ",
"      - =.<.a.W./.A S D.v.4 J.b.Z v.|. XL.a.7.) & { 0.P         ",
"      O a o.1.x.V.% B.$Xv.4 `.$XN M  X_.i.7.` s z =.q.n         ",
"        X / <.z.J.A S F V q S D A b.}._.s.7.b > >.7.Q 9         ",
"        o [ 1.h.@X'.S % 8 H . w N.@X.X{.p.8.U ; =.<.t           ",
"        o } 8.p.W.XXOXW q e N G.OX}.{.R.r.0.U ; -.9.g           ",
"        X f ] 7.s.{.OXOXm.B ).@X@X.X!.y.5. .z u -.^ 2           ",
"            U 0.y.W.{.@X@X_.OX#XXX].U.4.0.g r 5.;.:             ",
"            p #.<.6.R.~.]. X{.^.Q.U.7.1.' h l &.! *             ",
"              0 ..&.9.y.f.E.!.a.r.r.,.{ 0 R =.T #               ",
"                < _ ' =.9.y.9.7.=...E 0 } =.c o                 ",
"                  @ @ v @.] o.o.u + < Q X.u X                   ",
"                      O & & # # X     # # X                     ",
"                                                                "
};
