/* XPM */
static char *c19eea7d95224a648b928a3b7b265252[] = {
/* columns rows colors chars-per-pixel */
"32 32 197 2 ",
"   c #000000",
".  c #090604",
"X  c #0D0B04",
"o  c #07060C",
"O  c #130E06",
"+  c #1B0D0A",
"@  c #12120A",
"#  c #1C1309",
"$  c #131114",
"%  c #1C1B1B",
"&  c #20160B",
"*  c #251E14",
"=  c #361114",
"-  c #1B211D",
";  c #24210A",
":  c #2A240E",
">  c #2E290D",
",  c #36290F",
"<  c #37310F",
"1  c #2B2313",
"2  c #2B2315",
"3  c #322510",
"4  c #352C11",
"5  c #3A2C13",
"6  c #3B3115",
"7  c #3B3018",
"8  c #292927",
"9  c #3B2727",
"0  c #2D3030",
"q  c #39383A",
"w  c #40300D",
"e  c #412F14",
"r  c #443515",
"t  c #483613",
"y  c #4A3917",
"u  c #453C19",
"i  c #4B3C18",
"p  c #45262A",
"a  c #423A3A",
"s  c #4B4019",
"d  c #5A4516",
"f  c #54451D",
"g  c #51491B",
"h  c #5C4D1D",
"j  c #63511C",
"k  c #69551E",
"l  c #6B5A1C",
"z  c #735E1F",
"x  c #7C661E",
"c  c #76691A",
"v  c #685520",
"b  c #755C23",
"n  c #766520",
"m  c #7D6525",
"M  c #7C6B24",
"N  c #78692B",
"B  c #444444",
"V  c #484750",
"C  c #514C53",
"Z  c #575658",
"A  c #5F5D5D",
"S  c #655B5D",
"D  c #5C625E",
"F  c #585962",
"G  c #655C64",
"H  c #656666",
"J  c #726E6E",
"K  c #6A6C73",
"L  c #7A7779",
"P  c #7A767C",
"I  c #80262E",
"U  c #962732",
"Y  c #836B26",
"T  c #8B6E29",
"R  c #8C7225",
"E  c #8E7B24",
"W  c #927C26",
"Q  c #9B7F29",
"!  c #836A30",
"~  c #83797A",
"^  c #8D841D",
"/  c #948B1F",
"(  c #9C8229",
")  c #9B8629",
"_  c #A78E27",
"`  c #A98E2E",
"'  c #AD912A",
"]  c #B1962E",
"[  c #AD8C32",
"{  c #B28F35",
"}  c #AC9232",
"|  c #B19235",
" . c #BD9434",
".. c #BB9C32",
"X. c #BCA033",
"o. c #C59C37",
"O. c #CD9D3A",
"+. c #C1A32D",
"@. c #C3AA2D",
"#. c #CBAE2E",
"$. c #D5A82C",
"%. c #CEB02E",
"&. c #D0B32E",
"*. c #C5A433",
"=. c #CBA435",
"-. c #C7AD33",
";. c #CDAC33",
":. c #CEA63A",
">. c #CDAD3A",
",. c #D4A235",
"<. c #D4AC34",
"1. c #DBAE37",
"2. c #D1A338",
"3. c #D3AC3B",
"4. c #D9AD38",
"5. c #C7B235",
"6. c #CBB134",
"7. c #CEB33B",
"8. c #D4B235",
"9. c #D3B13A",
"0. c #DAB338",
"q. c #CEA440",
"w. c #D3AF41",
"e. c #CCB643",
"r. c #CAB843",
"t. c #D3B443",
"y. c #D3B44D",
"u. c #CABA55",
"i. c #CDBC5B",
"p. c #D2B454",
"a. c #D7B556",
"s. c #D4B564",
"d. c #D0B46B",
"f. c #D2BB6E",
"g. c #D2BB72",
"h. c #D5B978",
"j. c #7F868A",
"k. c #828383",
"l. c #8A8A83",
"z. c #8B878E",
"x. c #85888A",
"c. c #928D84",
"v. c #8C908E",
"b. c #8D8D93",
"n. c #938F93",
"m. c #949592",
"M. c #9B9995",
"N. c #93959B",
"B. c #98989B",
"V. c #9EA29B",
"C. c #AA9FA2",
"Z. c #A5A4A4",
"A. c #A9ADA7",
"S. c #ABB1AD",
"D. c #B2B2A8",
"F. c #AFB0B4",
"G. c #B7B3B7",
"H. c #B8BDB6",
"J. c #BBBCB9",
"K. c #D9BC88",
"L. c #D5BE93",
"P. c #D8B992",
"I. c #D6BEAE",
"U. c #CDC28D",
"Y. c #CDC293",
"T. c #CFC598",
"R. c #D5C394",
"E. c #D4C69C",
"W. c #CEC2A6",
"Q. c #CDCBAF",
"!. c #D5C4A2",
"~. c #CAC9B8",
"^. c #DAC4B6",
"/. c #D5C8B7",
"(. c #CBBDC8",
"). c #BEC3C5",
"_. c #C6C5C2",
"`. c #CBC3C2",
"'. c #C6C9C5",
"]. c #CACCC5",
"[. c #C8CAC9",
"{. c #CDCDCC",
"}. c #D4CBC4",
"|. c #D7C7C8",
" X c #D4CDCC",
".X c #C6D3CB",
"XX c #CDD2CE",
"oX c #D1D3C3",
"OX c #D2D2CC",
"+X c #CDCED2",
"@X c #D3CDD2",
"#X c #DBCFD4",
"$X c #CDD2D3",
"%X c #D3D3D3",
"&X c #DAD5D6",
"*X c #D4D3DA",
"=X c #D9DAE0",
/* pixels */
"                                                                ",
"                    4 u 1     4 u r t r @                       ",
"                . r } ] n 6 t [ 8.#.#.2.k < :                   ",
"              O f *.} v v :.3.<.t.a.i.>.;.-.` 5 .               ",
"            # l @.[ s T 3.7.u.p.L. XQ.d.a.t.#.o.t X             ",
"            N 7.' * ( <.9.i.]. X X XOX@X XU.r.<.O.i             ",
"          # W 6.( 2 { 1.s./. X*X$XXX{.&X@X X!.8.9.h X           ",
"        @ ( <.R 5 { 6.6.g.%X$X$X%XOXOX%X$X$X/.e.5.*.b           ",
"        $ | 0.x : o.&.K.|._.).{.@X$X+X XXX[.`.^.t.0.!           ",
"        & ' 8.M : *.%.R.B.0 q C. XXXXX#X Xk.Z `.y.8.M           ",
"      ; / %.7.N 3 +.9.E.j.- Z.Z k.$XXX`.G D A.].p.8.Y .         ",
"      4 6.9.b j _ >.9.T.x.@ B $ K *X).C $ % H '.p.9.X.c .       ",
"      4 ;.9.i d 8.t.P.}.J.c.x.b.F.OX[.N.z.l.M.[.I.s.8.' X       ",
"      4 2.8.i f 3.w.^.@X%XOXOX%X%XOXOX*X%XOX%X%X#Xf.<.[ X       ",
"      5 ,.6.u f 8.9.Q.XXXX$XOX@Xn.Z Z A S.%X+XXXXXf.8.` X       ",
"      5 $.;.u g 8.9.Q.XXXX+X*X@XC.V o A G.*XXX{.XXf.8.` X       ",
"      5 ,.6.u f 9.3.Q.XX{.+X%X%X&XG.P `.&X%XOX{.OXg.<.` X       ",
"      4 2.8.i f 9.3.^.@X{.OXXXb.Z.G.z.(.v.V.&X+X{.f.8.} X       ",
"      4 ;.9.i d 8.w.K.}.%X~.k.F N.m.% G.P H B.+X!.p.<.} X       ",
"      4 5.8.m j ) 3.;.Y.%XD.% B.=XN.- H.&XJ 0 _.a.3...z .       ",
"      ; ^ #.9.N 3 +.8.Y.$XH.C ~ M.J 9 l.N.H D ~.p.8.M           ",
"        # ' 8.M : *.8.R.@X{.[.S % = U + 8 L %XoXa.4.m           ",
"        $ | 0.x 1 q.%.h.|.%XXX{.L p I 9 m.+X@XW.t.0.! o         ",
"        @ W ;.R r [ -.7.g. X$X*X{.m.a S..X$X/.t.6.+.l           ",
"          O E 6.( 2 [ 1.s.~. X*X*X[.J.%X@X XE.8.9.h .           ",
"            N >.' 2 Q <.8.u.].}. X XOX@X|.U.r.<.O.y             ",
"            + k @.{ i T 2.9.u.p.L.}.Q.s.a.t.#. .e X             ",
"              X i ..| k k =.:.<.t.p.p.>.=.-.) 3 .               ",
"                . 5 } ] n , 5 [ ;.-.#.=.j > ;                   ",
"                    1 6 :     1 7 6 w 5 O                       ",
"                                                                ",
"                                                                "
};
