/* XPM */
static char *_505218e62d543f2943cfb7bcab3bf4d[] = {
/* columns rows colors chars-per-pixel */
"32 32 177 2 ",
"   c #000000",
".  c #090604",
"X  c #070805",
"o  c #0A0A05",
"O  c #0E0A0A",
"+  c #140D0A",
"@  c #1A0E08",
"#  c #0F1008",
"$  c #141507",
"%  c #131409",
"&  c #1D120C",
"*  c #1C1D0C",
"=  c #1C1412",
"-  c #1D1F10",
";  c #2B180D",
":  c #351407",
">  c #3C1307",
",  c #31160A",
"<  c #351D0D",
"1  c #3C1C0D",
"2  c #301814",
"3  c #24240D",
"4  c #2A220C",
"5  c #3E2A0E",
"6  c #39310E",
"7  c #3B3A0F",
"8  c #222410",
"9  c #2F2E11",
"0  c #3A2915",
"q  c #3A261D",
"w  c #2F3213",
"e  c #333513",
"r  c #3D3411",
"t  c #3D3C13",
"y  c #363A1B",
"u  c #3D3D21",
"i  c #461B09",
"p  c #47250D",
"a  c #54280C",
"s  c #58290F",
"d  c #42370F",
"f  c #432D15",
"g  c #4E2B12",
"h  c #502711",
"j  c #5C2E13",
"k  c #4B3114",
"l  c #413D13",
"z  c #563217",
"x  c #5D3417",
"c  c #633315",
"v  c #613E1F",
"b  c #723C15",
"n  c #7D3C14",
"m  c #743E1B",
"M  c #413C3E",
"N  c #533A36",
"B  c #3D4025",
"V  c #444315",
"C  c #4B4A17",
"Z  c #44441C",
"A  c #4C4C1B",
"S  c #55451E",
"D  c #504E1B",
"F  c #4E521B",
"G  c #54531D",
"H  c #575C1D",
"J  c #5A5A1F",
"K  c #6F401C",
"L  c #7D4F1E",
"P  c #4A4627",
"I  c #4A4B23",
"U  c #5A4524",
"Y  c #545621",
"T  c #585720",
"R  c #525A27",
"E  c #5C5C21",
"W  c #5B5A36",
"Q  c #6C4321",
"!  c #625428",
"~  c #5E6323",
"^  c #5F672A",
"/  c #5D6436",
"(  c #636524",
")  c #666926",
"_  c #646A2B",
"`  c #697325",
"'  c #6C732D",
"]  c #70772D",
"[  c #727B2D",
"{  c #646B33",
"}  c #686E38",
"|  c #6B7135",
" . c #707A34",
".. c #76783E",
"X. c #787D3A",
"o. c #6A6242",
"O. c #767A41",
"+. c #82441C",
"@. c #944D1A",
"#. c #97541D",
"$. c #985E22",
"%. c #A55B26",
"&. c #A15D28",
"*. c #827A3F",
"=. c #AE6026",
"-. c #BD6A28",
";. c #BC7E38",
":. c #C16925",
">. c #CF792C",
",. c #D6732D",
"<. c #C47D38",
"1. c #77822F",
"2. c #7A862F",
"3. c #778232",
"4. c #788134",
"5. c #7E8A35",
"6. c #7A843D",
"7. c #7E8240",
"8. c #808B35",
"9. c #828D3C",
"0. c #879435",
"q. c #8C9A3B",
"w. c #909F3C",
"e. c #C8853F",
"r. c #DB8B3F",
"t. c #E7903B",
"y. c #858F49",
"u. c #8F9B41",
"i. c #8E974A",
"p. c #8F994B",
"a. c #929E43",
"s. c #988353",
"d. c #919755",
"f. c #A69C46",
"g. c #94A343",
"h. c #99A646",
"j. c #9CAD44",
"k. c #93A048",
"l. c #99A34B",
"z. c #9FAD4A",
"x. c #9FAB59",
"c. c #A3AF4B",
"v. c #A3B449",
"b. c #A1A256",
"n. c #A3AE52",
"m. c #B4AA57",
"M. c #A5B556",
"N. c #A5B25D",
"B. c #AEBE59",
"V. c #B4B45F",
"C. c #AF9F60",
"Z. c #A9B362",
"A. c #B0BC66",
"S. c #C18140",
"D. c #D79341",
"F. c #D19845",
"G. c #EC9C48",
"H. c #DFA052",
"J. c #E4A14D",
"K. c #EBA856",
"L. c #F7AA53",
"P. c #B1C154",
"I. c #B4C559",
"U. c #B7C85B",
"Y. c #BACA5B",
"T. c #B6C667",
"R. c #BCCD61",
"E. c #BAC669",
"W. c #BDCB71",
"Q. c #C5D66A",
"!. c #D8CB75",
"~. c #C9D778",
"^. c #CAD77E",
"/. c #C6D380",
"(. c #CAD682",
"). c #E0E99C",
"_. c #E4EDA2",
/* pixels */
"                                                                ",
"                                X X o X                         ",
"                                y _ _ ^ A w * X                 ",
"                              0 S ( ) _ ) ( F #                 ",
"                              Q -.$.U P o.W %                   ",
"                            X U r.=.1 2 N M O                   ",
"                    X o o B *.H.S.h : > i + X                   ",
"    X * 8 * * 3 y { { } ' p.f.J.K.e.&.+.m &                     ",
"  * _ a.k.u.u.M.W.T.h.l.l.g.V.;.G.L.G.t.F.P                     ",
"% 6.W./.(.(.^.~.B.g.0.R.Q.P.M.C.@.:.>.D.!.x.-                   ",
"I A.A.9./ y.n.h.q.2.0.Y.Q.Q.v.A.s.c L m._.~. .o           .     ",
"i.M.3.e % Y F H ~ ` v.U.U.I.I.z.Z.o.0 b.).E.8.R o   X X v %.z   ",
"n.4.e o Z T A H [ w.j.j.j.j.c.c.a.p.u O.E.z.( ~ V e t ! <.,.K   ",
"| 8   % D G E ) [ 1.9.Z.N.N.k.q.a.u.6.{ a.u.F 7 7 t V I f g &   ",
"+     o l D T E ( J E 7...d.X.] 3.5.9. .5.4.y 3 9 3 $ X         ",
"        3 V A G T C V A G T G ~ ) ' ] _ ' ~ %                   ",
"        o 4 6 V D A V t t V A J ( ( ) E ( G o                   ",
"        . g g 5 r V C C C C D G T E J G E t                     ",
"        . b #.b j f 6 l V C A D G G D D A *                     ",
"          < #.n c c c g 5 d l V V V V t *                       ",
"            < m s p j x c c x k 4 * $ X                         ",
"              ; c i , @ < a j ;                                 ",
"                < j i : : 1 1 .                                 ",
"                  < p , + & & O                                 ",
"                  + q q & + + O                                 ",
"                  . = = & & +                                   ",
"                      . + +                                     ",
"                                                                ",
"                                                                ",
"                                                                ",
"                                                                ",
"                                                                "
};
